PathFileType	4	(X/Y/Z)	Patient4_TMGait_0pt4_02_right_32.trc.trc
DataRate	CameraRate	NumFrames	NumMarkers	Units	OrigDataRate	OrigDataStartFrame	OrigNumFrames
76.923076923077	76.923076923077	4	33	mm	76.923076923077	1	       141
Frame#	Time	Sacral			L.Shoulder			Chest			R.Shoulder			Neck			R.ASIS			L.ASIS			R.Thigh.Superior			R.Thigh.Lateral			R.Thigh.Inferior			R.Patella			L.Thigh.Superior			L.Thigh.Lateral			L.Thigh.Inferior			L.Patella			L.Shank.Superior			L.Shank.Lateral			L.Shank.Inferior			R.Shank.Superior			R.Shank.Lateral			R.Shank.Inferior			R.Heel			R.Midfoot.Superior			R.Midfoot.Lateral			R.Toe			L.Heel			L.Midfoot.Lateral			L.Midfoot.Superior			L.Toe			L.Elbow			L.Wrist			R.Elbow			R.Wrist			
		X1	Y1	Z1	X2	Y2	Z2	X3	Y3	Z3	X4	Y4	Z4	X5	Y5	Z5	X6	Y6	Z6	X7	Y7	Z7	X8	Y8	Z8	X9	Y9	Z9	X10	Y10	Z10	X11	Y11	Z11	X12	Y12	Z12	X13	Y13	Z13	X14	Y14	Z14	X15	Y15	Z15	X16	Y16	Z16	X17	Y17	Z17	X18	Y18	Z18	X19	Y19	Z19	X20	Y20	Z20	X21	Y21	Z21	X22	Y22	Z22	X23	Y23	Z23	X24	Y24	Z24	X25	Y25	Z25	X26	Y26	Z26	X27	Y27	Z27	X28	Y28	Z28	X29	Y29	Z29	X30	Y30	Z30	X31	Y31	Z31	X32	Y32	Z32	X33	Y33	Z33	

1	42.220000000000	852.330109848588	1005.929429912100	427.089753181682	1040.626824121537	1440.434405108655	250.788584023043	1140.138275365599	1367.680230568229	412.510693063337	1052.118096427450	1435.352361986420	586.603677028808	1021.670786061859	1497.069091151795	408.388202883179	1083.561496713457	946.486514344031	542.956789537474	1067.310993992645	963.794591954640	269.094184960681	1158.669813331361	766.318918307470	518.127445717252	1111.679256252157	648.845759367978	595.487008772216	1200.296839153118	603.000650585296	519.804849410762	1211.640521172552	491.166902999818	544.834112513651	1117.658846844211	751.709505197060	291.405913288647	1025.652753507793	635.037644833561	237.980532208041	1113.845638150714	557.874572755061	296.160364525359	1114.947719712119	487.989807786889	306.570894961864	1084.489034015114	415.136021632484	301.778494037859	989.278448561937	304.222208519239	255.244148891338	1035.892742650051	191.256551466130	325.601560037443	1131.542123001943	420.721139409419	556.187843602184	1009.283126503808	392.174876788974	621.400892622097	985.135033609885	283.183151525306	576.746301958267	781.484720502701	244.098429545267	559.924104807508	940.622647494495	159.136869660296	589.146790246185	833.164401900548	171.189225728795	626.638876847868	989.820326541139	37.567392946189	606.069066019919	904.666052458032	39.368627715740	374.291084286459	973.928403196888	35.405713496026	289.813523460141	1059.191054664472	95.665883329643	312.922923611333	1186.107664676505	41.003163204879	277.240685616939	1076.139877302365	1103.241542788976	100.648234054086	1257.280671086110	912.021000624219	85.364297893811	1003.525630243307	1085.306423933447	692.829813234443	1073.211426338216	832.575820887631	692.554829981443	
2	42.233000000000	851.100252448425	1007.120983691516	425.648772036788	1043.079971116172	1440.901513414319	249.969491526672	1140.206927752938	1368.056778440024	412.942337423338	1050.267433458770	1436.445160270454	585.867095776229	1022.203928187950	1497.796609715956	407.366724355985	1081.395198856991	947.990383068331	542.919826303638	1066.920071237968	964.335522896681	269.055394910493	1159.017558508925	770.740277603910	517.646903287401	1114.688195479411	652.491504219984	595.328795129563	1204.155509922438	608.399120076081	519.627620835573	1218.162805018502	496.958694207211	544.614029888252	1115.226664385900	751.099248385990	292.081218657407	1022.198999246557	635.398831459991	238.162247210856	1109.069971020298	557.413637018650	296.932733812429	1109.343782121362	487.743647266939	307.419284880982	1078.997281818885	415.266349245156	302.142521735674	983.833401530940	304.394073174657	255.318234721473	1030.426019468722	191.395548144991	325.712771911544	1139.679317214946	424.619057776750	555.918979254755	1018.377225108918	392.892827971056	621.382185857951	996.937556371267	283.287147235127	576.594077326326	794.348613888837	238.553150249548	560.205308379576	955.783925723313	158.142987954105	588.770181479231	848.215611879874	167.105978955675	626.736730029846	1008.600979800885	38.106105756106	605.464605521148	899.024501998170	39.375111158831	374.196852724585	968.366589818041	35.419864823901	289.743310145291	1053.647436889483	95.688581859360	312.829191085493	1180.550861548874	41.022349790217	277.192023881407	1083.043833827537	1105.706983901108	98.008783440117	1271.583717993928	922.592647277044	83.540393952864	991.041967537767	1088.623992406667	691.571315416267	1051.656695649519	834.164543291258	692.617461923331	
3	42.246000000000	849.887405892322	1008.315052256529	424.214621491894	1045.540670606274	1441.358913227530	249.185186294123	1140.285724938253	1368.424718004258	413.400124269148	1048.443262173171	1437.531953940942	585.140169857369	1022.732388207039	1498.515150285467	406.375571259135	1079.230719110144	949.481266206826	542.944228228307	1066.561423856729	964.858500687906	269.072697948839	1159.299893510006	775.091610257909	517.238409490510	1117.570326721459	656.071112852097	595.211892534530	1207.833682628545	613.667615054871	519.491012676997	1224.426984985929	502.669824663845	544.460919903978	1112.778739435118	750.482257880887	292.847617184977	1018.757247946740	635.761596162107	238.352766772698	1104.281480359501	556.954515631086	297.733251271941	1103.719897889348	487.496013841778	308.285412455079	1073.502347952099	415.399584670875	302.517231125098	978.400233731157	304.561651185302	255.397601171673	1024.988607185145	191.537518512317	325.830173396861	1147.651880543066	428.400638872836	555.714680245816	1027.392907258424	393.317183200677	621.434270788809	1008.824113443048	283.094424255204	576.524003191996	807.396428698468	232.446681139960	560.588358319493	971.208527140455	156.810265201068	588.474016884977	863.554797450072	162.551823265068	626.933710544074	1027.797039944440	38.401969394079	604.936691721335	893.422742991277	39.378283367434	374.107675541451	962.842360725538	35.431253581274	289.676182703983	1048.140693245250	95.712238619872	312.743034085274	1175.031229261678	41.047648240611	277.146967114933	1089.829188502913	1108.153719318451	95.424087586159	1285.631314381032	933.125632630091	81.805803852811	978.737526424908	1092.003395606061	690.365189250686	1030.454652746101	835.896096429806	692.661425243631	
4	42.259000000000	848.714486718865	1009.498054487044	422.802812500728	1048.007194483052	1441.785040429914	248.480004341474	1140.385005440564	1368.765108766900	413.915116252524	1046.676473763541	1438.592090597729	584.445864408607	1023.253638653943	1499.203817105550	405.454151668642	1077.079837126339	950.924106028808	543.089875668811	1066.270338358827	965.337067675813	269.199079250446	1159.419165387178	779.227689988304	516.978883706094	1120.127665299094	659.469422715189	595.196682527537	1211.070304008047	618.605402600065	519.442413218911	1230.100857212867	508.167233563718	544.431030673273	1110.316899967726	749.850958174196	293.776301605837	1015.348298103743	636.123198234273	238.559679136119	1099.479466265390	556.496567433185	298.580809561853	1098.074433083182	487.248022067852	309.173583345749	1068.010317387307	415.533525713665	302.909706867066	972.996245541874	304.719293478612	255.485171419618	1019.602089945528	191.680853732876	325.959335735658	1155.242051563416	431.943832572536	555.639045473344	1036.261651743209	393.179348752172	621.643887088393	1020.890136398075	282.379245006289	576.616830140061	820.933583982997	225.296281801773	561.174672172961	987.198844385510	154.935467853378	588.343793406657	879.560133184440	157.181052903814	627.329690893803	1047.835157890617	38.412137879127	604.568173949554	887.892374505174	39.375200768753	374.027801350083	957.383942769930	35.437781875940	289.614240603869	1042.698613572812	95.737190352050	312.671006713009	1169.576895135540	41.083035452092	277.108590818003	1096.380402256903	1110.546592181370	92.963372065663	1299.156525727684	943.556163369790	80.262913008921	966.817099905006	1095.469856160469	689.255609339006	1009.981307880879	837.871863446115	692.670859796029	
